HIERARCHY
ROOT Hips
{
	OFFSET	0.000000	0.000000	0.000000
	CHANNELS 6 Xposition Yposition Zposition Zrotation Xrotation Yrotation
	JOINT LeftUpLeg
	{
		OFFSET	11.840439	-0.173119	-0.075538
		CHANNELS 3 Zrotation Xrotation Yrotation
		JOINT LeftLeg
		{
			OFFSET	0.064808	-44.851322	-0.897377
			CHANNELS 3 Zrotation Xrotation Yrotation
			JOINT LeftFoot
			{
				OFFSET	-0.002027	-48.741835	-4.235425
				CHANNELS 3 Zrotation Xrotation Yrotation
				JOINT LeftFootHeel
				{
					OFFSET	1.024061	-8.290356	-4.351312
					CHANNELS 3 Zrotation Xrotation Yrotation
					End Site
					{
						OFFSET	0.000000	-0.000002	21.023995
					}
				}
			}
		}
	}
	JOINT RightUpLeg
	{
		OFFSET	-11.143184	-0.298897	0.753999
		CHANNELS 3 Zrotation Xrotation Yrotation
		JOINT RightLeg
		{
			OFFSET	-0.215917	-44.628559	-2.024469
			CHANNELS 3 Zrotation Xrotation Yrotation
			JOINT RightFoot
			{
				OFFSET	-0.134178	-49.374297	-3.937864
				CHANNELS 3 Zrotation Xrotation Yrotation
				JOINT RightFootHeel
				{
					OFFSET	-0.659746	-7.754899	-4.748771
					CHANNELS 3 Zrotation Xrotation Yrotation
					End Site
					{
						OFFSET	-0.827408	0.000005	20.422375
					}
				}
			}
		}
	}
	JOINT Spine
	{
		OFFSET	0.050506	11.047144	0.726697
		CHANNELS 3 Zrotation Xrotation Yrotation
		JOINT Spine1
		{
			OFFSET	0.042168	10.113822	0.001417
			CHANNELS 3 Zrotation Xrotation Yrotation
			JOINT LeftShoulder
			{
				OFFSET	5.191633	33.202372	2.074730
				CHANNELS 3 Zrotation Xrotation Yrotation
				JOINT LeftArm
				{
					OFFSET	13.418006	-0.294033	-3.545941
					CHANNELS 3 Zrotation Xrotation Yrotation
					JOINT LeftForeArm
					{
						OFFSET	5.282285	-33.620963	-4.164127
						CHANNELS 3 Zrotation Xrotation Yrotation
						JOINT LeftHand
						{
							OFFSET	3.940124	-29.810709	5.709310
							CHANNELS 3 Zrotation Xrotation Yrotation
							End Site
							{
								OFFSET	-0.517837	-9.723881	0.844149
							}
						}
					}
				}
			}
			JOINT RightShoulder
			{
				OFFSET	-4.283481	33.202372	2.074730
				CHANNELS 3 Zrotation Xrotation Yrotation
				JOINT RightArm
				{
					OFFSET	-14.397074	0.178497	-3.888105
					CHANNELS 3 Zrotation Xrotation Yrotation
					JOINT RightForeArm
					{
						OFFSET	-3.732606	-33.365691	-2.106234
						CHANNELS 3 Zrotation Xrotation Yrotation
						JOINT RightHand
						{
							OFFSET	-5.384318	-29.907227	4.553331
							CHANNELS 3 Zrotation Xrotation Yrotation
							End Site
							{
								OFFSET	0.014456	-10.034930	1.568668
							}
						}
					}
				}
			}
			JOINT Neck
			{
				OFFSET	0.459242	36.619940	-3.690848
				CHANNELS 3 Zrotation Xrotation Yrotation
				JOINT Head
				{
					OFFSET	-0.180655	11.033758	4.523384
					CHANNELS 3 Zrotation Xrotation Yrotation
					End Site
					{
						OFFSET	-0.426913	13.396161	-0.014943
					}
				}
			}
		}
	}
}
MOTION
Frames:     8
Frame Time: 0.041667
0.000000	72.004959	0.000000	21.067549	-4.381689	77.270416	-15.566001	-56.300705	2.739682	42.192692	71.609222	-47.042713	-9.253076	5.349563	20.817204	0.	0.	0.	-15.102302	-55.663502	-25.809498	-45.603184	69.300499	26.671806	3.421174	7.039925	6.854764	0.	0.	0.	-0.000000	0.000002	0.000002	-7.595439	26.039600	-15.419801	2.548961	10.320696	2.654362	0.947559	-5.704641	-3.061689	-49.901588	-47.110283	-62.984707	10.256406	-13.260692	-51.734303	0.439207	14.929396	7.206403	-1.642689	-25.660513	18.603903	22.154696	-45.481995	34.832199	-13.177497	-28.783401	12.003198	-6.010518	10.168396	-29.088400	7.464972	-2.877122	-35.918495	
0.009466	72.004504	-0.003067	21.001192	-4.384682	77.247040	-15.563800	-56.395599	2.615370	42.015198	71.656052	-47.040497	-9.345362	5.426411	21.025698	0.	0.	0.	-15.085600	-55.729084	-25.810097	-45.613503	69.298988	26.679203	3.420210	7.041501	6.853977	0.	0.	0.	-0.000000	0.000000	0.000000	-7.504752	26.016699	-15.442199	2.521479	10.261996	2.625331	0.918409	-5.646251	-3.032902	-49.946091	-47.127102	-63.059906	10.280005	-13.279498	-51.729000	0.383166	14.870196	7.206574	-1.626963	-25.588299	18.607803	22.214405	-45.513794	34.768192	-13.135395	-28.826708	12.085996	-6.135813	10.104498	-29.057493	7.566078	-2.883632	-35.953197	
0.016385	72.005861	-0.008430	20.994480	-4.384617	77.242744	-15.581706	-56.405685	2.568345	41.935097	71.643295	-47.283615	-9.433782	5.485186	21.379410	0.	0.	0.	-15.088505	-55.734001	-25.813095	-45.618999	69.297829	26.681803	3.419580	7.043051	6.853034	0.	0.	0.	-0.000001	0.000003	0.000002	-7.423702	26.055399	-15.476497	2.476602	10.200795	2.608911	0.903095	-5.579882	-3.016911	-49.997810	-47.118305	-63.157894	10.351184	-13.338208	-51.713097	0.325977	14.808796	7.203170	-1.614872	-25.516191	18.609512	22.266111	-45.551094	34.724895	-13.099298	-28.858803	12.163086	-6.251271	10.057995	-29.032690	7.646458	-2.828370	-36.054592	
0.015532	72.005517	-0.008158	20.987965	-4.382992	77.244034	-15.669506	-56.424892	2.412813	41.865200	71.598343	-47.647106	-9.596744	5.507279	21.873405	0.	0.	0.	-15.089411	-55.741089	-25.814800	-45.621002	69.296989	26.680706	3.419260	7.044568	6.851985	0.	0.	0.	-0.000000	0.000000	0.000002	-7.351213	26.086996	-15.507196	2.426178	10.146205	2.601765	0.899754	-5.524931	-3.012655	-50.040916	-47.109100	-63.235497	10.413099	-13.391610	-51.704395	0.272801	14.756206	7.196374	-1.600932	-25.459190	18.613604	22.303104	-45.583801	34.697208	-13.070207	-28.878801	12.219593	-6.292624	10.042104	-29.043795	7.667532	-2.684896	-36.112099	
0.013124	72.005066	-0.007604	20.937439	-4.372895	77.245316	-15.715400	-56.486813	2.307161	41.795601	71.547440	-48.258011	-9.731062	5.523008	22.497805	0.	0.	0.	-15.113003	-55.790611	-25.845898	-45.620201	69.296539	26.677002	3.419219	7.046039	6.850821	0.	0.	0.	-0.000000	0.000002	0.000000	-7.271441	26.081703	-15.547896	2.376261	10.092601	2.597131	0.896933	-5.483148	-3.010022	-50.073830	-47.097000	-63.295788	10.450389	-13.408709	-51.692291	0.200403	14.718197	7.181509	-1.572936	-25.433205	18.630007	22.331404	-45.613007	34.691605	-13.046893	-28.889101	12.268379	-6.327942	10.049100	-29.056284	7.690728	-2.555581	-36.171085	
0.011230	72.005415	-0.006439	20.889521	-4.363400	77.246841	-15.794300	-56.538795	2.182961	41.801003	71.423622	-48.916893	-9.881530	5.578214	22.923307	0.	0.	0.	-15.134595	-55.836700	-25.874304	-45.617592	69.296265	26.671608	3.419430	7.047454	6.849597	0.	0.	0.	-0.000000	0.000000	0.000000	-7.180970	26.072498	-15.592101	2.314330	10.026598	2.594540	0.895780	-5.465927	-3.008160	-50.087601	-47.073963	-63.325401	10.482392	-13.421193	-51.680904	0.134674	14.655498	7.174718	-1.562490	-25.433994	18.636896	22.336803	-45.625294	34.693687	-13.060691	-28.897688	12.242799	-6.378098	10.003398	-29.071095	7.641129	-2.484581	-36.217899	
0.010208	72.005827	-0.006238	20.846615	-4.355371	77.246643	-15.829304	-56.579601	2.138552	41.871883	71.252449	-49.846111	-9.957350	5.668907	23.584396	0.	0.	0.	-15.153706	-55.877907	-25.899500	-45.614105	69.296005	26.665497	3.419879	7.048820	6.848314	0.	0.	0.	-0.000000	0.000001	0.000000	-7.168079	26.033705	-15.603999	2.309161	10.021100	2.594293	0.893363	-5.466381	-3.006828	-50.087814	-47.044613	-63.340496	10.512896	-13.431105	-51.663284	0.129965	14.650000	7.172786	-1.556301	-25.434412	18.640907	22.374393	-45.637012	34.689606	-13.044298	-28.898394	12.278794	-6.245739	9.967520	-29.151295	7.502059	-2.429211	-36.189793	
0.010387	72.006427	-0.007054	20.806829	-4.348319	77.244896	-15.900204	-56.619705	2.038719	42.227001	70.966873	-51.623318	-10.302502	5.653017	24.484505	0.	0.	0.	-15.171503	-55.915901	-25.922798	-45.610512	69.295792	26.659595	3.420536	7.050101	6.847016	0.	0.	0.	0.000000	-0.000003	0.000000	-7.163651	25.993698	-15.611902	2.309490	10.021699	2.595579	0.891756	-5.442881	-3.005611	-50.105785	-47.036015	-63.418804	10.544910	-13.431702	-51.610806	0.130601	14.650599	7.172419	-1.551340	-25.434603	18.644201	22.391293	-45.644505	34.689812	-13.045105	-28.900887	12.279099	-6.182067	9.971990	-29.186802	7.497890	-2.397702	-36.160095	
